<?xml version="1.0" standalone="no"?>
<!DOCTYPE svg PUBLIC "-//W3C//DTD SVG 20010904//EN"
 "http://www.w3.org/TR/2001/REC-SVG-20010904/DTD/svg10.dtd">
<svg version="1.0" xmlns="http://www.w3.org/2000/svg"
 width="600.000000pt" height="600.000000pt" viewBox="0 0 600.000000 600.000000"
 preserveAspectRatio="xMidYMid meet">
<metadata>
Created by potrace 1.14, written by Peter Selinger 2001-2017
</metadata>
<g transform="translate(0.000000,600.000000) scale(0.100000,-0.100000)"
fill="#000000" stroke="none">
<path d="M2695 5990 c-830 -4 -1736 -8 -2012 -9 -498 -1 -503 -1 -524 -22 -26
-26 -28 -8 40 -489 64 -455 297 -2330 336 -2705 38 -362 120 -867 170 -1040
43 -150 112 -300 195 -425 20 -30 62 -105 94 -165 94 -183 240 -363 380 -470
36 -27 68 -57 71 -66 14 -40 300 -237 460 -316 100 -50 130 -62 363 -148 449
-165 876 -177 1402 -41 140 36 180 55 180 86 0 14 7 20 21 20 11 0 37 13 57
29 31 23 47 28 95 29 49 0 71 8 155 52 609 325 1044 902 1182 1567 48 231 160
1088 255 1943 30 278 71 638 91 800 19 162 44 403 54 535 11 137 30 296 44
370 53 271 70 445 45 461 -37 23 -388 9 -404 -15 -10 -17 85 -35 186 -36 113
-1 133 -8 150 -52 5 -15 -7 -141 -37 -370 -24 -192 -47 -358 -49 -371 -8 -32
-41 -62 -69 -62 -58 0 -268 74 -411 145 -187 93 -280 117 -445 117 -159 0
-259 -25 -427 -107 -181 -89 -266 -109 -438 -103 -146 6 -221 26 -363 97 -307
154 -669 144 -965 -27 -133 -76 -164 -91 -227 -107 -41 -11 -106 -18 -175 -18
-140 -1 -209 21 -425 138 -85 46 -186 93 -225 105 -129 40 -372 38 -501 -6
-27 -9 -98 -38 -159 -64 -166 -73 -226 -90 -334 -97 -123 -7 -178 12 -210 76
-33 64 -81 403 -81 565 1 73 9 94 46 114 14 7 590 12 1970 17 2640 8 2698 9
2732 31 l27 18 -30 9 c-41 14 -515 15 -2290 7z m2222 -746 c95 -19 159 -43
339 -127 155 -72 241 -101 327 -112 33 -4 62 -14 69 -24 11 -14 11 -14 -2 -5
-8 6 -42 15 -75 19 -87 10 -174 40 -325 110 -224 105 -305 131 -440 145 -69 7
-71 7 -22 9 29 0 87 -6 129 -15z m-1710 -300 c40 -8 54 -53 50 -162 -4 -105
-13 -133 -53 -159 -34 -22 -140 -21 -189 3 -53 25 -63 53 -66 188 -4 150 -6
148 135 140 56 -3 111 -7 123 -10z m2460 -51 c-3 -10 -5 -4 -5 12 0 17 2 24 5
18 2 -7 2 -21 0 -30z m-10 -75 c-2 -13 -4 -5 -4 17 -1 22 1 32 4 23 2 -10 2
-28 0 -40z m-10 -80 c-2 -13 -4 -5 -4 17 -1 22 1 32 4 23 2 -10 2 -28 0 -40z
m-1860 16 c44 -33 50 -79 25 -172 -12 -44 -22 -95 -22 -113 0 -50 32 -95 90
-124 27 -14 50 -31 50 -38 0 -26 -42 -79 -73 -92 -44 -18 -83 -8 -123 32 -46
46 -61 79 -74 159 -17 106 -29 142 -53 159 -28 20 -104 19 -184 -1 -72 -18
-93 -10 -93 33 0 39 34 77 99 112 129 68 298 90 358 45z m-1117 -20 c149 -50
200 -94 185 -157 -11 -43 -28 -50 -84 -38 -27 6 -85 13 -130 17 -133 11 -159
-11 -201 -174 -11 -45 -26 -94 -32 -108 -16 -35 -63 -55 -99 -42 -40 14 -46
42 -15 78 41 49 47 91 30 184 -22 112 -15 189 18 223 58 57 187 64 328 17z
m2967 -86 c-2 -13 -4 -3 -4 22 0 25 2 35 4 23 2 -13 2 -33 0 -45z m-10 -80
c-2 -13 -4 -5 -4 17 -1 22 1 32 4 23 2 -10 2 -28 0 -40z m-10 -75 c-3 -10 -5
-2 -5 17 0 19 2 27 5 18 2 -10 2 -26 0 -35z m-2420 -18 c20 -27 12 -108 -13
-136 -17 -19 -27 -21 -87 -16 -82 5 -117 30 -117 84 0 35 15 72 34 86 6 4 46
6 89 5 65 -3 81 -7 94 -23z m2410 -67 c-2 -13 -4 -3 -4 22 0 25 2 35 4 23 2
-13 2 -33 0 -45z m-3004 37 c-3 -9 -8 -14 -10 -11 -3 3 -2 9 2 15 9 16 15 13
8 -4z m782 -17 c-11 -6 -27 -16 -35 -22 -9 -6 -5 -1 8 12 13 12 28 22 35 22 7
0 3 -6 -8 -12z m-798 -40 c-3 -7 -5 -2 -5 12 0 14 2 19 5 13 2 -7 2 -19 0 -25z
m3010 -60 c-2 -13 -4 -5 -4 17 -1 22 1 32 4 23 2 -10 2 -28 0 -40z m-2225 -38
c6 0 8 -3 5 -6 -8 -8 -57 23 -57 36 0 6 9 1 20 -10 11 -11 25 -20 32 -20z
m2215 -52 c-2 -13 -4 -3 -4 22 0 25 2 35 4 23 2 -13 2 -33 0 -45z m-2222 -13
c175 -22 272 -44 341 -76 135 -63 224 -181 254 -339 31 -162 65 -536 75 -811
3 -98 10 -157 20 -182 31 -76 14 -122 -72 -193 -32 -25 -64 -55 -71 -65 -20
-29 -54 -23 -118 20 -144 96 -242 218 -227 280 9 39 39 77 87 111 24 17 52 48
64 68 33 59 113 428 147 674 8 61 -6 88 -46 88 -27 0 -33 -6 -60 -67 -59 -129
-100 -245 -97 -272 3 -28 20 -32 67 -17 23 8 24 7 17 -35 -8 -50 -70 -189 -84
-189 -18 0 -21 29 -7 63 17 40 1 82 -30 82 -15 0 -21 -9 -26 -39 -4 -26 -16
-48 -35 -64 -25 -22 -34 -24 -86 -18 -73 9 -83 -6 -43 -64 32 -45 28 -76 -8
-66 -12 3 -55 9 -94 13 -72 6 -73 6 -73 35 0 40 -14 64 -76 130 -30 31 -59 69
-64 84 -13 34 -23 25 -59 -48 -33 -67 -62 -87 -152 -104 -57 -11 -80 -20 -103
-44 -28 -27 -30 -37 -36 -117 -3 -48 -9 -94 -13 -100 -11 -18 -63 -16 -81 3
-12 12 -15 27 -10 67 5 38 2 63 -11 92 -49 114 -45 124 89 217 32 22 97 59
145 81 127 60 206 56 303 -16 55 -41 75 2 36 82 -19 38 -22 60 -20 146 1 56
-5 139 -13 186 -13 75 -18 87 -50 115 -19 17 -35 38 -35 47 0 53 -51 97 -113
97 -41 0 -57 -16 -91 -93 -57 -129 -65 -239 -29 -384 26 -105 0 -146 -115
-184 -37 -12 -80 -30 -97 -41 -36 -22 -58 -23 -75 -3 -11 14 -45 121 -95 299
-13 50 -31 96 -39 104 -16 16 -51 8 -60 -14 -8 -20 28 -179 64 -285 17 -48 30
-101 30 -118 0 -44 -22 -92 -60 -131 -34 -35 -60 -86 -60 -119 0 -46 33 -101
80 -135 85 -61 85 -56 1 -489 -40 -204 -79 -382 -87 -395 -22 -34 -69 -59
-127 -66 -91 -12 -289 -55 -389 -85 -53 -16 -106 -27 -117 -24 -27 7 -38 48
-19 71 48 56 145 270 203 447 80 242 105 404 125 825 8 179 25 335 46 434 6
29 7 29 31 -22 33 -69 106 -134 147 -130 21 2 35 12 48 34 23 39 15 60 -26 74
-62 20 -115 106 -123 201 -7 68 10 101 96 192 64 67 141 117 226 145 54 18
232 45 370 56 96 7 391 -3 510 -19z m2212 -62 c-3 -10 -5 -2 -5 17 0 19 2 27
5 18 2 -10 2 -26 0 -35z m-10 -80 c-3 -10 -5 -2 -5 17 0 19 2 27 5 18 2 -10 2
-26 0 -35z m-10 -85 c-2 -13 -4 -3 -4 22 0 25 2 35 4 23 2 -13 2 -33 0 -45z
m-2474 -52 c2 2 4 -2 5 -8 0 -7 7 -34 16 -60 14 -46 14 -48 -7 -63 -27 -19
-58 -19 -102 -1 -29 12 -35 20 -35 45 0 38 17 83 37 98 12 10 23 9 49 -2 18
-7 34 -11 37 -9z m2464 -28 c-2 -13 -4 -5 -4 17 -1 22 1 32 4 23 2 -10 2 -28
0 -40z m-12 -108 c-4 -39 -9 -69 -12 -67 -2 3 -1 37 3 76 3 40 9 70 11 67 3
-3 2 -37 -2 -76z m-18 -122 c-3 -7 -5 -2 -5 12 0 14 2 19 5 13 2 -7 2 -19 0
-25z m-2372 -529 c22 -6 52 -20 67 -30 14 -11 33 -19 41 -19 20 0 31 -81 30
-220 -1 -116 -10 -192 -53 -415 -15 -82 -34 -195 -40 -249 -17 -135 -21 -138
-151 -133 -122 5 -140 16 -176 102 -93 228 -107 541 -33 778 46 149 175 225
315 186z m341 -194 c8 -32 -18 -73 -51 -81 -46 -11 -56 11 -31 71 13 29 20 35
45 35 24 0 32 -5 37 -25z m1921 -62 c-3 -10 -5 -4 -5 12 0 17 2 24 5 18 2 -7
2 -21 0 -30z m-4800 -5 c-3 -7 -5 -2 -5 12 0 14 2 19 5 13 2 -7 2 -19 0 -25z
m4790 -80 c-2 -13 -4 -5 -4 17 -1 22 1 32 4 23 2 -10 2 -28 0 -40z m-4780 -5
c-3 -10 -5 -4 -5 12 0 17 2 24 5 18 2 -7 2 -21 0 -30z m4770 -100 c-2 -16 -4
-3 -4 27 0 30 2 43 4 28 2 -16 2 -40 0 -55z m-4760 20 c-3 -10 -5 -2 -5 17 0
19 2 27 5 18 2 -10 2 -26 0 -35z m2014 6 c19 -19 21 -30 16 -83 -5 -69 -60
-294 -113 -463 -32 -104 -37 -113 -59 -113 -14 0 -25 4 -25 9 0 4 21 129 46
277 26 148 49 292 51 319 2 28 6 56 8 63 7 19 53 14 76 -9z m-2004 -76 c-3
-10 -5 -2 -5 17 0 19 2 27 5 18 2 -10 2 -26 0 -35z m4740 -50 c-2 -16 -4 -5
-4 22 0 28 2 40 4 28 2 -13 2 -35 0 -50z m-4692 -271 c15 -112 24 -206 21
-210 -3 -3 -6 1 -6 9 0 8 -14 115 -30 239 -17 123 -29 233 -29 245 2 29 15
-54 44 -283z m4682 176 c-2 -13 -4 -3 -4 22 0 25 2 35 4 23 2 -13 2 -33 0 -45z
m-1281 17 c9 -14 20 -60 25 -103 9 -92 62 -248 130 -386 27 -54 49 -102 49
-106 0 -10 -108 5 -175 25 -80 23 -136 57 -186 113 -46 51 -99 154 -99 190 0
37 28 94 65 132 19 19 43 56 55 82 27 62 45 78 85 78 26 0 39 -6 51 -25z
m1269 -125 c-4 -39 -9 -69 -12 -67 -2 3 -1 37 3 76 3 40 9 70 11 67 3 -3 2
-37 -2 -76z m-1974 -109 c36 -56 41 -137 9 -188 -17 -28 -25 -33 -58 -33 -26
0 -45 7 -57 20 -20 22 -19 40 11 203 l16 88 25 -23 c13 -12 37 -43 54 -67z
m-591 -178 c0 -43 -110 -59 -134 -21 -14 23 5 112 40 186 l26 57 34 -100 c19
-54 34 -110 34 -122z m2547 160 c-3 -10 -5 -2 -5 17 0 19 2 27 5 18 2 -10 2
-26 0 -35z m-1753 -10 c16 -97 3 -137 -49 -159 -46 -19 -45 -19 -45 26 0 45
18 95 50 141 28 38 36 37 44 -8z m1743 -50 c-3 -10 -5 -4 -5 12 0 17 2 24 5
18 2 -7 2 -21 0 -30z m-10 -70 c-3 -10 -5 -2 -5 17 0 19 2 27 5 18 2 -10 2
-26 0 -35z m-10 -60 c-3 -10 -5 -4 -5 12 0 17 2 24 5 18 2 -7 2 -21 0 -30z
m-4590 -5 c-3 -7 -5 -2 -5 12 0 14 2 19 5 13 2 -7 2 -19 0 -25z m4580 -50 c-3
-7 -5 -2 -5 12 0 14 2 19 5 13 2 -7 2 -19 0 -25z m-4570 0 c-3 -8 -6 -5 -6 6
-1 11 2 17 5 13 3 -3 4 -12 1 -19z m10 -50 c-3 -7 -5 -2 -5 12 0 14 2 19 5 13
2 -7 2 -19 0 -25z m4550 0 c-3 -8 -6 -5 -6 6 -1 11 2 17 5 13 3 -3 4 -12 1
-19z m-1762 -13 c178 -21 285 -40 455 -79 80 -19 174 -39 209 -45 209 -34 361
-217 361 -433 0 -108 -17 -125 -88 -89 -75 38 -230 90 -345 116 -144 32 -681
109 -875 126 -302 25 -743 2 -1152 -61 -69 -10 -146 -22 -172 -25 -52 -7 -78
-25 -78 -55 0 -38 34 -43 133 -21 143 31 193 40 327 55 157 19 501 39 523 31
52 -20 48 -225 -6 -284 -35 -38 -76 -50 -211 -61 -207 -16 -470 15 -630 75
-36 14 -76 25 -87 25 -27 0 -81 -29 -74 -39 9 -16 249 -90 375 -116 97 -20
166 -28 309 -32 l183 -6 29 -61 c15 -34 36 -105 46 -159 24 -136 28 -133 -164
-118 -259 20 -478 62 -718 138 -60 19 -146 38 -190 44 -87 10 -145 34 -145 60
0 9 -9 50 -19 92 -26 101 -17 134 50 187 54 43 92 50 125 25 52 -39 88 -3 82
84 l-3 46 -48 3 c-55 4 -119 -24 -206 -88 -34 -25 -58 -37 -64 -31 -16 16 -2
280 17 331 41 108 115 171 261 219 180 59 729 143 1080 165 134 8 585 -3 710
-19z m1752 -47 c-3 -7 -5 -2 -5 12 0 14 2 19 5 13 2 -7 2 -19 0 -25z m-10 -50
c-3 -7 -5 -2 -5 12 0 14 2 19 5 13 2 -7 2 -19 0 -25z m-10 -50 c-3 -7 -5 -2
-5 12 0 14 2 19 5 13 2 -7 2 -19 0 -25z m-10 -50 c-3 -7 -5 -2 -5 12 0 14 2
19 5 13 2 -7 2 -19 0 -25z m-2156 -297 c20 -16 24 -29 25 -88 2 -84 17 -116
95 -202 70 -76 101 -137 107 -207 5 -65 -24 -132 -96 -221 -48 -59 -50 -65
-56 -135 -2 -40 -4 -101 -3 -135 3 -81 -16 -102 -96 -110 -101 -10 -127 33
-127 213 0 101 -12 135 -79 214 -86 104 -88 211 -6 307 66 77 88 136 94 251 5
87 9 106 25 118 28 20 89 18 117 -5z m459 -16 c198 -19 560 -82 577 -99 8 -8
-27 -64 -52 -85 -15 -11 -47 -27 -73 -37 -74 -26 -152 -65 -152 -75 0 -14 47
-22 105 -17 41 3 68 14 108 40 146 97 233 122 328 95 79 -23 121 -70 127 -140
7 -89 -30 -137 -158 -206 -97 -52 -259 -105 -380 -125 -114 -19 -509 -66 -550
-66 -21 0 -35 8 -47 26 -15 23 -15 35 -5 105 13 92 40 150 77 167 14 7 54 12
89 12 49 0 69 5 90 21 14 11 26 25 26 30 0 5 -44 9 -98 9 -129 0 -191 18 -246
74 -43 43 -106 154 -106 188 0 34 29 88 52 98 24 10 41 9 288 -15z m-146 -825
c-60 -9 -87 -22 -108 -52 -9 -12 -16 -18 -16 -12 0 21 33 54 63 63 18 5 50 9
72 9 38 0 37 -1 -11 -8z m-331 -357 c-18 -2 -48 -2 -65 0 -18 2 -4 4 32 4 36
0 50 -2 33 -4z"/>
</g>
</svg>
